<svg width="312" height="328" viewBox="0 0 312 328" fill="none" xmlns="http://www.w3.org/2000/svg">
<g clip-path="url(#clip0_70_34)">
<path d="M304.711 85.8997C301.986 82.8346 295.449 78.5687 280.371 78.0184C275.885 77.8551 273.394 79.7694 272.068 82.0762C270.479 84.861 268.631 89.4012 267.441 89.8455C266.25 90.2898 263.144 89.239 261.767 88.7428C264.005 82.0933 264.104 78.0109 264.167 77.4489C264.97 69.5751 233.023 49.752 197.878 38.1199C162.875 26.1373 125.424 22.5981 121.339 29.3507C121.042 29.8398 118.637 33.1459 116.399 39.7954C114.977 39.3493 111.817 38.2532 111.193 37.2364C110.569 36.2195 111.778 31.437 112.199 28.2481C112.51 25.627 111.711 22.5782 108.04 19.996C95.6972 11.3175 87.9169 10.7649 83.8875 11.5565C81.4969 12.033 79.4867 13.5369 79.0152 17.2485C78.5752 20.7309 77.1651 33.6881 77.2759 40.9372C77.3739 50.5861 78.6645 60.7018 91.9971 72.3519C103.586 82.5048 110.771 83.3805 110.02 86.9216C109.971 87.2045 109.857 87.4718 109.688 87.7049C109.519 87.9379 109.298 88.131 109.04 88.2707C107.858 87.8847 106.714 87.392 105.623 86.7992L102.71 87.0615C101.339 88.6879 99.0267 91.4638 99.003 91.4831C98.8899 91.5813 105.445 96.1315 111.047 94.3374C113.852 93.4515 116.285 91.7542 118.02 89.4723C119.837 94.5755 126.614 113.537 150.447 127.511C153.434 136.426 153.582 140.286 153.662 142.581C149.516 143.328 150.416 146.891 150.872 147.845C140.057 148.681 138.103 156.32 137.955 156.761C135.913 162.828 138.596 182.401 139.19 188.161C138.372 188.289 137.598 188.591 136.924 189.044C136.25 189.498 135.693 190.093 135.293 190.785C125.643 189.859 117.457 192.414 114.197 197.7C114.174 197.768 112.716 199.927 108.025 213.066C95.8655 212.882 90.6619 216.075 89.6855 216.581C88.6759 216.378 87.648 216.294 86.6245 216.33C81.7747 216.535 80.9197 219.687 80.7335 220.24C80.0479 222.277 80.5174 224.637 81.9305 227.184C80.1754 231.532 77.8734 237.811 76.8337 240.629C66.6609 240.099 62.3969 246.618 61.535 250.198C58.5348 262.663 83.4494 279.525 113.221 289.502C148.678 301.392 173.778 299.439 178.153 289.447C179.635 286.065 180.19 278.298 171.753 272.575C172.653 269.7 174.612 263.316 175.823 258.785C178.502 257.621 180.288 256.02 180.975 253.978C181.161 253.424 182.417 250.407 178.647 247.301C177.855 246.655 176.987 246.101 176.062 245.652C175.585 244.657 173.371 238.968 163.58 231.764C167.797 218.438 167.954 215.863 167.96 215.795C168.554 209.611 163.579 202.627 155.333 197.53C155.433 196.736 155.349 195.926 155.086 195.157C154.824 194.389 154.39 193.68 153.815 193.083C157.772 188.855 171.743 174.887 173.785 168.82C173.933 168.379 176.996 161.113 168.892 153.91C169.828 153.424 172.689 151.127 169.853 148.03C171.309 146.253 173.746 143.262 181.52 137.969C208.953 141.25 225.816 130.244 230.349 127.278C230.351 130.145 231.262 132.967 232.961 135.369C236.328 140.182 244.31 140.525 244.28 140.378C244.288 140.354 244.109 136.739 244 134.615L241.839 132.644C240.611 132.457 239.402 132.158 238.228 131.751C238.107 131.484 238.047 131.196 238.053 130.908C238.059 130.62 238.131 130.339 238.263 130.083C239.812 126.789 246.058 130.456 261.427 129.376C279.096 128.16 286.235 120.881 292.147 113.255C296.619 107.548 303.33 96.3753 305.085 93.3355C307.051 90.127 306.354 87.712 304.711 85.8997ZM103.608 71.2066C85.5367 58.4302 85.5038 46.6337 85.9316 37.1727C86.3074 28.9535 86.5542 24.2613 87.1141 21.2553C87.401 19.6893 87.9188 17.1652 94.6751 20.4204C95.3835 20.7624 103.291 24.3342 102.926 28.0378C102.926 28.0378 102.239 33.1543 101.97 35.1409C101.702 37.1275 102.059 42.0991 107.723 44.1637C107.775 44.1809 114.078 46.6076 114.586 46.7624C112.624 56.5683 112.756 67.9511 115.077 78.9313C111.203 76.303 108.003 74.31 103.608 71.2066ZM296.309 91.6629C294.938 94.3957 292.292 98.2805 287.627 105.056C282.247 112.85 275.088 122.227 252.959 121.473C247.579 121.297 243.833 120.941 239.15 120.717C247.634 113.368 254.62 104.386 258.992 95.3913C259.505 95.5642 265.973 97.452 266.024 97.4693C271.792 99.2253 275.076 95.4844 276.062 93.7611C277.048 92.0379 279.591 87.5243 279.596 87.526C281.541 84.3647 290.002 86.2913 290.773 86.4472C298.126 87.9298 297.017 90.2386 296.299 91.6595L296.309 91.6629Z" fill="#FF786C"/>
</g>
<defs>
<clipPath id="clip0_70_34">
<rect width="239.013" height="265.264" fill="white" transform="translate(84.6147) rotate(18.6014)"/>
</clipPath>
</defs>
</svg>
