<svg width="80" height="80" viewBox="0 0 80 80" fill="none" xmlns="http://www.w3.org/2000/svg">
<g filter="url(#filter0_d_45_293)">
<circle r="30" transform="matrix(-4.37114e-08 1 1 4.37114e-08 40 30)" fill="#0353F0"/>
<path d="M55.6752 34.5067L25.1816 34.5067L40.4284 16.9229L55.6752 34.5067ZM58.069 32.3925L42.8222 14.812C42.5238 14.4674 42.1558 14.1912 41.743 14.002C41.3301 13.8127 40.8819 13.7148 40.4284 13.7148C39.9749 13.7148 39.5267 13.8127 39.1138 14.002C38.7009 14.1912 38.3329 14.4674 38.0346 14.812L22.7878 32.3925C22.385 32.8564 22.1233 33.4276 22.034 34.0378C21.9446 34.6479 22.0315 35.271 22.2841 35.8327C22.5366 36.3943 22.9443 36.8705 23.4582 37.2043C23.9721 37.5381 24.5704 37.7154 25.1816 37.7148L55.6752 37.7148C56.2863 37.7154 56.8847 37.5381 57.3986 37.2043C57.9125 36.8705 58.3201 36.3943 58.5727 35.8327C58.8253 35.2711 58.9121 34.6479 58.8228 34.0378C58.7335 33.4276 58.4718 32.8564 58.069 32.3925Z" fill="#FAFBFF"/>
</g>
<defs>
<filter id="filter0_d_45_293" x="0" y="0" width="80" height="80" filterUnits="userSpaceOnUse" color-interpolation-filters="sRGB">
<feFlood flood-opacity="0" result="BackgroundImageFix"/>
<feColorMatrix in="SourceAlpha" type="matrix" values="0 0 0 0 0 0 0 0 0 0 0 0 0 0 0 0 0 0 127 0" result="hardAlpha"/>
<feOffset dy="10"/>
<feGaussianBlur stdDeviation="5"/>
<feColorMatrix type="matrix" values="0 0 0 0 0.807843 0 0 0 0 0.870588 0 0 0 0 0.976471 0 0 0 0.5 0"/>
<feBlend mode="normal" in2="BackgroundImageFix" result="effect1_dropShadow_45_293"/>
<feBlend mode="normal" in="SourceGraphic" in2="effect1_dropShadow_45_293" result="shape"/>
</filter>
</defs>
</svg>
